# xmcd
#
# Track frame offsets:
#	150
#	34047
#	63027
#	99508
#	140304
#	171390
#	204827
#	227483
#
# Disc length: 3598 seconds
#
# Revision: 0
# Processed by: cddbd v1.5.2PL0 Copyright (c) Steve Scherf et al.
# Submitted via: audiograbber 1.83.01
#
DISCID=5d0e0c08
DTITLE=Grateful Dead - 94-06-26 Sam Boyd Silver Bowl, Las Vegas NV
DYEAR=1900
DGENRE=
TTITLE0=Hell In A Bucket
TTITLE1=Peggy-O
TTITLE2=New Minglewood Blues
TTITLE3=Ramble On Rose
TTITLE4=El Paso
TTITLE5=So Many Roads
TTITLE6=Just Like Tom Thumb Blues
TTITLE7=The Music Never Stopped
EXTD=
EXTT0=
EXTT1=
EXTT2=
EXTT3=
EXTT4=
EXTT5=
EXTT6=
EXTT7=
PLAYORDER=
